<?xml version="1.0" encoding="utf-8"?>
<!-- Generator: Adobe Illustrator 18.1.1, SVG Export Plug-In . SVG Version: 6.00 Build 0)  -->
<svg version="1.1" id="Calque_1" xmlns="http://www.w3.org/2000/svg" xmlns:xlink="http://www.w3.org/1999/xlink" x="0px" y="0px"
	 viewBox="0 0 60 60" enable-background="new 0 0 60 60" xml:space="preserve">
<path fill="#FFFFFF" d="M43.7,9.7l-0.1-0.1l0.8-2.1c0.1-0.3,0.1-0.6,0-0.9c-0.1-0.3-0.4-0.5-0.7-0.6C43,5.6,42.3,6,42,6.7l-0.8,2.1
	l-0.1,0c-1.5-0.4-3.1-0.6-4.7-0.6c-7.5,0-14.2,4.7-16.8,11.6L15,32.1l-8.4,3.8c-0.4,0.2-0.7,0.7-0.7,1.2c0,0.5,0.3,0.9,0.8,1.1
	l15.2,5.5l0,0.1c-0.6,3.5,1.5,7,4.8,8.2c0.8,0.3,1.7,0.4,2.5,0.4c2.7,0,5.1-1.4,6.5-3.6l0.1-0.1l15.2,5.5c0.6,0.2,1.4-0.1,1.6-0.7
	c0.1-0.3,0.1-0.7-0.1-1l-3.9-8.2l4.5-12.4C56.3,23.1,52.1,13.5,43.7,9.7z M33.3,47.9c-0.9,1.3-2.4,2-4,2c-0.6,0-1.2-0.1-1.7-0.3
	c-2.1-0.8-3.4-2.8-3.3-4.9l0-0.2l9.1,3.3L33.3,47.9z M50.8,30.9l-4.7,12.8c-0.1,0.3-0.1,0.6,0.1,0.9l2.9,6.1L35.5,46l-25.2-9.1
	l6.2-2.9c0.3-0.1,0.5-0.3,0.6-0.7l4.7-12.8c2.2-6,8-10,14.5-10c1.8,0,3.6,0.3,5.2,0.9c3.9,1.3,7,4.1,8.7,7.8
	C52,22.9,52.2,27.1,50.8,30.9z"/>
</svg>
