<?xml version="1.0" encoding="utf-8"?>
<!-- Generator: Adobe Illustrator 16.0.0, SVG Export Plug-In . SVG Version: 6.00 Build 0)  -->
<!DOCTYPE svg PUBLIC "-//W3C//DTD SVG 1.1//EN" "http://www.w3.org/Graphics/SVG/1.1/DTD/svg11.dtd">
<svg version="1.1" id="Calque_1" xmlns="http://www.w3.org/2000/svg" xmlns:xlink="http://www.w3.org/1999/xlink" x="0px" y="0px"
	 width="60px" height="60px" viewBox="0 0 60 60" enable-background="new 0 0 60 60" xml:space="preserve">
<path fill="#010202" d="M49.06,56.158L49.06,56.158H10.941l0,0c-3.098,0-5.606-2.509-5.606-5.606V5.706
	c0-0.619,0.501-1.122,1.121-1.122l0,0h38.12l0,0c0.464,0,0.863,0.283,1.033,0.685c0.056,0.134,0.088,0.282,0.088,0.437l0,0v15.696
	h7.848c0.62,0,1.121,0.503,1.121,1.121v28.029C54.666,53.649,52.157,56.158,49.06,56.158z M43.454,50.552V6.827H7.577v43.725l0,0
	l0,0c0,1.858,1.506,3.364,3.364,3.364h33.659C43.892,52.977,43.454,51.82,43.454,50.552z M52.424,23.645h-6.727v26.907
	c0,1.858,1.505,3.364,3.362,3.364c1.858,0,3.364-1.506,3.364-3.364V23.645z M10.941,48.311c0-0.619,0.501-1.121,1.121-1.121h10.09
	c0.62,0,1.121,0.502,1.121,1.121s-0.501,1.12-1.121,1.12h-10.09C11.442,49.431,10.941,48.93,10.941,48.311z M16.172,30.052
	c-0.427,0.427-1.119,0.427-1.548,0c-0.428-0.427-0.428-1.121,0-1.548l6.62-6.621c0.036-0.052,0.06-0.113,0.106-0.16
	c0.222-0.221,0.513-0.323,0.802-0.316c0.289-0.007,0.581,0.094,0.801,0.316c0.048,0.047,0.069,0.108,0.107,0.16l4.697,4.698
	l2.455-2.456c0.036-0.053,0.061-0.113,0.107-0.16c0.221-0.221,0.513-0.323,0.802-0.315c0.289-0.008,0.581,0.094,0.802,0.315
	c0.047,0.047,0.068,0.107,0.106,0.16l4.377,4.378c0.428,0.427,0.428,1.122,0,1.548c-0.428,0.427-1.121,0.427-1.547,0l-3.738-3.738
	l-1.815,1.815l0.374,0.375c0.428,0.427,0.428,1.122,0,1.548c-0.427,0.427-1.121,0.427-1.548,0l-5.98-5.98L16.172,30.052z
	 M28.879,35.978H38.97c0.62,0,1.121,0.503,1.121,1.12c0,0.621-0.501,1.121-1.121,1.121H28.879c-0.62,0-1.121-0.5-1.121-1.121
	C27.758,36.48,28.259,35.978,28.879,35.978z M28.879,41.583H38.97c0.62,0,1.121,0.503,1.121,1.121c0,0.62-0.501,1.121-1.121,1.121
	H28.879c-0.62,0-1.121-0.501-1.121-1.121C27.758,42.086,28.259,41.583,28.879,41.583z M28.879,47.189H38.97
	c0.62,0,1.121,0.502,1.121,1.121s-0.501,1.12-1.121,1.12H28.879c-0.62,0-1.121-0.501-1.121-1.12S28.259,47.189,28.879,47.189z
	 M30,20.842c0,0.929-0.753,1.681-1.682,1.681c-0.928,0-1.682-0.752-1.682-1.681c0-0.93,0.754-1.682,1.682-1.682
	C29.247,19.16,30,19.912,30,20.842z M33.364,14.675H17.668c-0.621,0-1.121-0.502-1.121-1.121c0-0.619,0.5-1.121,1.121-1.121h15.696
	c0.619,0,1.121,0.502,1.121,1.121C34.485,14.173,33.983,14.675,33.364,14.675z M12.062,41.583h10.09c0.62,0,1.121,0.503,1.121,1.121
	c0,0.62-0.501,1.121-1.121,1.121h-10.09c-0.62,0-1.121-0.501-1.121-1.121C10.941,42.086,11.442,41.583,12.062,41.583z
	 M23.273,37.098c0,0.621-0.501,1.121-1.121,1.121h-10.09c-0.62,0-1.121-0.5-1.121-1.121c0-0.617,0.501-1.12,1.121-1.12h10.09
	C22.772,35.978,23.273,36.48,23.273,37.098z"/>
</svg>
