<?xml version="1.0" encoding="utf-8"?>
<!-- Generator: Adobe Illustrator 16.0.0, SVG Export Plug-In . SVG Version: 6.00 Build 0)  -->
<!DOCTYPE svg PUBLIC "-//W3C//DTD SVG 1.1//EN" "http://www.w3.org/Graphics/SVG/1.1/DTD/svg11.dtd">
<svg version="1.1" id="Calque_1" xmlns="http://www.w3.org/2000/svg" xmlns:xlink="http://www.w3.org/1999/xlink" x="0px" y="0px"
	 width="60px" height="60px" viewBox="0 0 60 60" enable-background="new 0 0 60 60" xml:space="preserve">
<g>
	<path fill="#010202" d="M22.087,36.437h-6.475c-3.916,0-7.103-2.872-7.103-6.401v-3.64c0-3.529,3.187-6.4,7.103-6.4h6.475
		c0.494,0,0.896,0.401,0.896,0.896V35.54C22.982,36.035,22.581,36.437,22.087,36.437z M15.612,21.787
		c-2.929,0-5.312,2.067-5.312,4.609v3.64c0,2.542,2.384,4.609,5.312,4.609h5.579V21.787H15.612z"/>
	<path fill="#010202" d="M39.096,49.709c-0.965,0-2.028-0.43-3.102-1.271L21.522,36.651c-0.384-0.313-0.442-0.877-0.13-1.261
		c0.313-0.382,0.878-0.44,1.26-0.128l14.46,11.776c0.989,0.773,1.907,1.059,2.495,0.766c0.599-0.291,0.941-1.195,0.941-2.479V11.104
		c0-1.284-0.343-2.187-0.941-2.479c-0.591-0.29-1.508-0.006-2.509,0.777L22.652,21.17c-0.383,0.312-0.948,0.255-1.261-0.129
		c-0.312-0.383-0.254-0.947,0.129-1.26L35.98,8.003c1.599-1.25,3.161-1.597,4.411-0.987c1.256,0.611,1.947,2.064,1.947,4.088v34.223
		c0,2.024-0.691,3.477-1.947,4.089C39.988,49.612,39.554,49.709,39.096,49.709z"/>
	<path fill="#010202" d="M41.443,37.227c-0.496,0-0.896-0.4-0.896-0.896s0.4-0.896,0.896-0.896c4.552,0,8.257-3.239,8.257-7.22
		c0-3.981-3.705-7.22-8.257-7.22c-0.496,0-0.896-0.401-0.896-0.896c0-0.494,0.4-0.895,0.896-0.895
		c5.541,0,10.047,4.042,10.047,9.011C51.49,33.185,46.984,37.227,41.443,37.227z"/>
</g>
</svg>
