<?xml version="1.0" encoding="utf-8"?>
<!-- Generator: Adobe Illustrator 16.0.0, SVG Export Plug-In . SVG Version: 6.00 Build 0)  -->
<!DOCTYPE svg PUBLIC "-//W3C//DTD SVG 1.1//EN" "http://www.w3.org/Graphics/SVG/1.1/DTD/svg11.dtd">
<svg version="1.1" id="Calque_1" xmlns="http://www.w3.org/2000/svg" xmlns:xlink="http://www.w3.org/1999/xlink" x="0px" y="0px"
	 width="536px" height="494.4px" viewBox="0 0 536 494.4" enable-background="new 0 0 536 494.4" xml:space="preserve">
<g>
	<path d="M496,51.2h-52.8V22.4C443.2,9.6,432.8,0,420.8,0h-32C376,0,366.4,10.4,366.4,22.4v28.8H172.8V22.4
		C172.8,9.6,162.4,0,150.4,0h-32C105.6,0,96,10.4,96,22.4v28.8H40c-22.4,0-40,17.6-40,40v363.2c0,22.398,17.6,40,40,40h456
		c22.4,0,40-17.602,40-40V91.2C536,68.8,518.4,51.2,496,51.2z M389.6,62.4V23.2H419.2v39.2v32H389.6V62.4z M119.2,62.4V23.2h29.6
		v39.2v32h-29.6V62.4z M512,454.4c0,8.8-7.2,15.198-16,15.198H40c-8.8,0-16-7.198-16-16V180h488V454.4z M512,155.2H24V90.4
		c0-8,7.2-15.2,16-15.2h55.2V96c0,12.8,10.4,22.4,22.4,22.4h32c12.8,0,22.4-10.4,22.4-22.4V74.4h192.8V96
		c0,12.8,10.4,22.4,22.4,22.4h32C432,118.4,441.6,108,441.6,96V74.4H496c8.8,0,16,7.2,16,16V155.2z"/>
	<path d="M117.6,233.6H78.4c-6.4,0-12,5.6-12,12c0,6.399,5.6,12,12,12h39.2c6.4,0,12-5.603,12-12
		C129.6,239.2,124.8,233.6,117.6,233.6"/>
	<path d="M229.6,233.6h-39.2c-6.4,0-12,5.6-12,12c0,6.399,5.6,12,12,12h39.2c6.4,0,12-5.603,12-12
		C241.6,239.2,236.8,233.6,229.6,233.6"/>
	<path d="M341.6,233.6H302.4c-6.4,0-12,5.6-12,12c0,6.399,5.6,12,12,12H341.6c6.4,0,12-5.603,12-12
		C353.6,239.2,348.8,233.6,341.6,233.6"/>
	<path d="M453.6,233.6H414.4c-6.4,0-12,5.6-12,12c0,6.399,5.6,12,12,12H453.6c6.4,0,12-5.603,12-12
		C465.6,239.2,460.8,233.6,453.6,233.6"/>
	<path d="M117.6,313.6H78.4c-6.4,0-12,5.602-12,12c0,6.399,5.6,12,12,12h39.2c6.4,0,12-5.601,12-12
		C129.6,319.201,124.8,313.6,117.6,313.6"/>
	<path d="M229.6,313.6h-39.2c-6.4,0-12,5.602-12,12c0,6.399,5.6,12,12,12h39.2c6.4,0,12-5.601,12-12
		C241.6,319.201,236.8,313.6,229.6,313.6"/>
	<path d="M341.6,313.6H302.4c-6.4,0-12,5.602-12,12c0,6.399,5.6,12,12,12H341.6c6.4,0,12-5.601,12-12
		C353.6,319.201,348.8,313.6,341.6,313.6"/>
	<path d="M453.6,313.6H414.4c-6.4,0-12,5.602-12,12c0,6.399,5.6,12,12,12H453.6c6.4,0,12-5.601,12-12
		C465.6,319.201,460.8,313.6,453.6,313.6"/>
	<path d="M117.6,393.6H78.4c-6.4,0-12,5.602-12,12c0,6.399,5.6,12,12,12h39.2c6.4,0,12-5.601,12-12
		C129.6,399.201,124.8,393.6,117.6,393.6"/>
	<path d="M229.6,393.6h-39.2c-6.4,0-12,5.602-12,12c0,6.399,5.6,12,12,12h39.2c6.4,0,12-5.601,12-12
		C241.6,399.201,236.8,393.6,229.6,393.6"/>
	<path d="M341.6,393.6H302.4c-6.4,0-12,5.602-12,12c0,6.399,5.6,12,12,12H341.6c6.4,0,12-5.601,12-12
		C353.6,399.201,348.8,393.6,341.6,393.6"/>
	<path d="M453.6,393.6H414.4c-6.4,0-12,5.602-12,12c0,6.399,5.6,12,12,12H453.6c6.4,0,12-5.601,12-12
		C465.6,399.201,460.8,393.6,453.6,393.6"/>
</g>
</svg>
