<?xml version="1.0" encoding="utf-8"?>
<!-- Generator: Adobe Illustrator 16.0.0, SVG Export Plug-In . SVG Version: 6.00 Build 0)  -->
<!DOCTYPE svg PUBLIC "-//W3C//DTD SVG 1.1//EN" "http://www.w3.org/Graphics/SVG/1.1/DTD/svg11.dtd">
<svg version="1.1" id="Calque_1" xmlns="http://www.w3.org/2000/svg" xmlns:xlink="http://www.w3.org/1999/xlink" x="0px" y="0px"
	 width="60px" height="60px" viewBox="0 0 60 60" enable-background="new 0 0 60 60" xml:space="preserve">
<g>
	<path fill="#010202" d="M50.046,12.767h-4.643v-2.532c0-1.125-0.914-1.969-1.97-1.969H40.62c-1.125,0-1.968,0.915-1.968,1.969
		v2.532H21.63v-2.532c0-1.125-0.914-1.969-1.97-1.969h-2.813c-1.125,0-1.969,0.915-1.969,1.969v2.532H9.954
		c-1.97,0-3.517,1.547-3.517,3.518v31.933c0,1.97,1.547,3.518,3.517,3.518h40.092c1.97,0,3.517-1.548,3.517-3.518V16.284
		C53.562,14.313,52.016,12.767,50.046,12.767z M40.691,13.751v-3.445h2.603v3.445v2.813h-2.603V13.751z M16.918,13.751v-3.445h2.601
		v3.445v2.813h-2.601V13.751L16.918,13.751z M51.453,48.217c0,0.773-0.634,1.336-1.407,1.336H9.954
		c-0.773,0-1.407-0.632-1.407-1.405V24.091h42.906V48.217z M51.453,21.91H8.547v-5.696c0-0.703,0.634-1.337,1.407-1.337h4.853v1.829
		c0,1.125,0.915,1.97,1.971,1.97h2.812c1.126,0,1.969-0.915,1.969-1.97v-1.899h16.952v1.899c0,1.125,0.915,1.97,1.97,1.97h2.813
		c1.126,0,1.969-0.915,1.969-1.97v-1.899h4.783c0.773,0,1.407,0.633,1.407,1.407V21.91z"/>
	<path fill="#010202" d="M16.777,28.803H13.33c-0.562,0-1.056,0.493-1.056,1.056s0.493,1.056,1.056,1.056h3.447
		c0.562,0,1.054-0.493,1.054-1.056S17.409,28.803,16.777,28.803"/>
	<path fill="#010202" d="M26.624,28.803h-3.447c-0.562,0-1.054,0.493-1.054,1.056s0.491,1.056,1.054,1.056h3.447
		c0.562,0,1.054-0.493,1.054-1.056S27.257,28.803,26.624,28.803"/>
	<path fill="#010202" d="M36.471,28.803h-3.446c-0.563,0-1.055,0.493-1.055,1.056s0.491,1.056,1.055,1.056h3.446
		c0.563,0,1.056-0.493,1.056-1.056S37.104,28.803,36.471,28.803"/>
	<path fill="#010202" d="M46.318,28.803h-3.447c-0.562,0-1.054,0.493-1.054,1.056s0.491,1.056,1.054,1.056h3.447
		c0.562,0,1.056-0.493,1.056-1.056S46.95,28.803,46.318,28.803"/>
	<path fill="#010202" d="M16.777,35.837H13.33c-0.562,0-1.056,0.493-1.056,1.056s0.493,1.056,1.056,1.056h3.447
		c0.562,0,1.054-0.493,1.054-1.056S17.409,35.837,16.777,35.837"/>
	<path fill="#010202" d="M26.624,35.837h-3.447c-0.562,0-1.054,0.493-1.054,1.056s0.491,1.056,1.054,1.056h3.447
		c0.562,0,1.054-0.493,1.054-1.056S27.257,35.837,26.624,35.837"/>
	<path fill="#010202" d="M36.471,35.837h-3.446c-0.563,0-1.055,0.493-1.055,1.056s0.491,1.056,1.055,1.056h3.446
		c0.563,0,1.056-0.493,1.056-1.056S37.104,35.837,36.471,35.837"/>
	<path fill="#010202" d="M46.318,35.837h-3.447c-0.562,0-1.054,0.493-1.054,1.056s0.491,1.056,1.054,1.056h3.447
		c0.562,0,1.056-0.493,1.056-1.056S46.95,35.837,46.318,35.837"/>
	<path fill="#010202" d="M16.777,42.871H13.33c-0.562,0-1.056,0.493-1.056,1.056s0.493,1.056,1.056,1.056h3.447
		c0.562,0,1.054-0.493,1.054-1.056S17.409,42.871,16.777,42.871"/>
	<path fill="#010202" d="M26.624,42.871h-3.447c-0.562,0-1.054,0.493-1.054,1.056s0.491,1.056,1.054,1.056h3.447
		c0.562,0,1.054-0.493,1.054-1.056S27.257,42.871,26.624,42.871"/>
	<path fill="#010202" d="M36.471,42.871h-3.446c-0.563,0-1.055,0.493-1.055,1.056s0.491,1.056,1.055,1.056h3.446
		c0.563,0,1.056-0.493,1.056-1.056S37.104,42.871,36.471,42.871"/>
	<path fill="#010202" d="M46.318,42.871h-3.447c-0.562,0-1.054,0.493-1.054,1.056s0.491,1.056,1.054,1.056h3.447
		c0.562,0,1.056-0.493,1.056-1.056S46.95,42.871,46.318,42.871"/>
</g>
</svg>
