<?xml version="1.0" encoding="utf-8"?>
<!-- Generator: Adobe Illustrator 16.0.0, SVG Export Plug-In . SVG Version: 6.00 Build 0)  -->
<!DOCTYPE svg PUBLIC "-//W3C//DTD SVG 1.1//EN" "http://www.w3.org/Graphics/SVG/1.1/DTD/svg11.dtd">
<svg version="1.1" id="Calque_1" xmlns="http://www.w3.org/2000/svg" xmlns:xlink="http://www.w3.org/1999/xlink" x="0px" y="0px"
	 width="60px" height="60px" viewBox="0 0 60 60" enable-background="new 0 0 60 60" xml:space="preserve">
<g>
	<circle fill="#010202" cx="24.057" cy="29.499" r="2.187"/>
	<circle fill="#010202" cx="36.604" cy="29.499" r="2.187"/>
	<circle fill="#010202" cx="30.33" cy="29.499" r="2.187"/>
	<path fill="#010202" d="M30.319,12.277c-9.536,0-17.266,7.73-17.266,17.268c0,3.26,0.905,6.312,2.477,8.916l-3.117,9.262
		l9.56-3.059c2.474,1.369,5.318,2.148,8.345,2.148c9.537,0,17.268-7.73,17.268-17.267C47.586,20.007,39.857,12.277,30.319,12.277z
		 M30.319,44.84c-2.928,0-5.668-0.828-7.997-2.264l-6.916,2.217l2.248-6.684c-1.659-2.447-2.631-5.395-2.631-8.565
		c0-8.437,6.862-15.299,15.297-15.299s15.298,6.862,15.298,15.299C45.617,37.979,38.754,44.84,30.319,44.84z"/>
</g>
</svg>
