<?xml version="1.0" encoding="utf-8"?>
<!-- Generator: Adobe Illustrator 16.0.0, SVG Export Plug-In . SVG Version: 6.00 Build 0)  -->
<!DOCTYPE svg PUBLIC "-//W3C//DTD SVG 1.1//EN" "http://www.w3.org/Graphics/SVG/1.1/DTD/svg11.dtd">
<svg version="1.1" id="Calque_1" xmlns="http://www.w3.org/2000/svg" xmlns:xlink="http://www.w3.org/1999/xlink" x="0px" y="0px"
	 width="61px" height="60px" viewBox="0 0 61 60" enable-background="new 0 0 61 60" xml:space="preserve">
<g>
	<circle fill="#FFFFFF" cx="24.463" cy="29.491" r="2.222"/>
	<circle fill="#FFFFFF" cx="37.207" cy="29.491" r="2.222"/>
	<circle fill="#FFFFFF" cx="30.835" cy="29.491" r="2.222"/>
	<path fill="#FFFFFF" d="M30.824,11.997c-9.686,0-17.539,7.853-17.539,17.54c0,3.313,0.92,6.413,2.517,9.057l-3.166,9.41l9.71-3.109
		c2.513,1.389,5.402,2.182,8.477,2.182c9.688,0,17.541-7.854,17.541-17.54C48.363,19.849,40.512,11.997,30.824,11.997z
		 M30.824,45.075c-2.975,0-5.758-0.843-8.123-2.299l-7.025,2.249l2.283-6.789c-1.685-2.484-2.672-5.479-2.672-8.7
		c0-8.569,6.97-15.54,15.538-15.54c8.569,0,15.54,6.971,15.54,15.54C46.363,38.104,39.393,45.075,30.824,45.075z"/>
</g>
</svg>
