<?xml version="1.0" encoding="utf-8"?>
<!-- Generator: Adobe Illustrator 16.0.0, SVG Export Plug-In . SVG Version: 6.00 Build 0)  -->
<!DOCTYPE svg PUBLIC "-//W3C//DTD SVG 1.1//EN" "http://www.w3.org/Graphics/SVG/1.1/DTD/svg11.dtd">
<svg version="1.1" id="Calque_1" xmlns="http://www.w3.org/2000/svg" xmlns:xlink="http://www.w3.org/1999/xlink" x="0px" y="0px"
	 width="60px" height="60px" viewBox="0 0 60 60" enable-background="new 0 0 60 60" xml:space="preserve">
<g>
	<g>
		<g>
			<path stroke="#010202" stroke-width="0.5" stroke-linecap="round" stroke-linejoin="round" stroke-miterlimit="10" d="M30,54.914
				c-5.509,0-10.692-1.82-14.992-5.265l0.969-1.208c4.021,3.221,8.871,4.924,14.023,4.924c5.154,0,10.005-1.703,14.026-4.926
				l0.968,1.208C40.695,53.092,35.512,54.914,30,54.914z"/>
			<path stroke="#010202" stroke-width="0.5" stroke-linecap="round" stroke-linejoin="round" stroke-miterlimit="10" d="
				M15.008,49.649C9.283,45.062,6,38.233,6,30.914c0-13.233,10.767-24,24-24s24,10.767,24,24c0,7.319-3.283,14.147-9.006,18.733
				l-0.968-1.208c5.354-4.291,8.425-10.679,8.425-17.525c0-12.38-10.072-22.451-22.451-22.451S7.549,18.534,7.549,30.914
				c0,6.847,3.072,13.235,8.428,17.527L15.008,49.649z"/>
		</g>
		<path stroke="#010202" stroke-width="0.5" stroke-linecap="round" stroke-linejoin="round" stroke-miterlimit="10" d="
			M14.588,35.923c-3.1,0-5.622-2.522-5.622-5.622s2.521-5.622,5.622-5.622c3.1,0,5.621,2.522,5.621,5.622
			S17.688,35.923,14.588,35.923z M14.588,26.227c-2.246,0-4.073,1.828-4.073,4.073c0,2.247,1.827,4.073,4.073,4.073
			s4.072-1.827,4.072-4.073S16.834,26.227,14.588,26.227z"/>
		<path stroke="#010202" stroke-width="0.5" stroke-linecap="round" stroke-linejoin="round" stroke-miterlimit="10" d="
			M20.203,40.508c-1.516-1.459-3.511-2.262-5.615-2.262c-2.008,0-3.934,0.738-5.421,2.08l-1.038-1.148
			c1.773-1.6,4.067-2.48,6.457-2.48c2.509,0,4.885,0.957,6.689,2.695L20.203,40.508z"/>
		<path stroke="#010202" stroke-width="0.5" stroke-linecap="round" stroke-linejoin="round" stroke-miterlimit="10" d="
			M45.412,35.923c-3.1,0-5.621-2.522-5.621-5.622s2.521-5.622,5.621-5.622s5.622,2.522,5.622,5.622S48.512,35.923,45.412,35.923z
			 M45.412,26.227c-2.246,0-4.072,1.828-4.072,4.073c0,2.247,1.827,4.073,4.072,4.073c2.246,0,4.074-1.827,4.074-4.073
			C49.485,28.055,47.658,26.227,45.412,26.227z"/>
		<path stroke="#010202" stroke-width="0.5" stroke-linecap="round" stroke-linejoin="round" stroke-miterlimit="10" d="
			M39.852,40.456l-1.063-1.125c1.799-1.698,4.151-2.634,6.624-2.634c2.391,0,4.684,0.881,6.457,2.479l-1.037,1.15
			c-1.488-1.342-3.414-2.08-5.42-2.08C43.336,38.246,41.361,39.031,39.852,40.456z"/>
		<path stroke="#010202" stroke-width="0.5" stroke-linecap="round" stroke-linejoin="round" stroke-miterlimit="10" d="
			M30.002,35.934c-4.908,0-8.899-3.992-8.899-8.9s3.991-8.899,8.899-8.899c4.907,0,8.898,3.992,8.898,8.899
			C38.9,31.941,34.909,35.934,30.002,35.934z M30.002,19.683c-4.053,0-7.352,3.298-7.352,7.351c0,4.054,3.298,7.352,7.352,7.352
			c4.053,0,7.352-3.298,7.352-7.352C37.353,22.981,34.055,19.683,30.002,19.683z"/>
		<path stroke="#010202" stroke-width="0.5" stroke-linecap="round" stroke-linejoin="round" stroke-miterlimit="10" d="
			M16.246,49.219l-1.508-0.347c1.639-7.162,7.916-12.164,15.264-12.164c7.346,0,13.622,5.001,15.264,12.162l-1.51,0.347
			c-1.479-6.453-7.135-10.96-13.754-10.96C23.381,38.257,17.725,42.764,16.246,49.219z"/>
	</g>
</g>
</svg>
