<?xml version="1.0" encoding="utf-8"?>
<!-- Generator: Adobe Illustrator 16.0.0, SVG Export Plug-In . SVG Version: 6.00 Build 0)  -->
<!DOCTYPE svg PUBLIC "-//W3C//DTD SVG 1.1//EN" "http://www.w3.org/Graphics/SVG/1.1/DTD/svg11.dtd">
<svg version="1.1" id="Calque_1" xmlns="http://www.w3.org/2000/svg" xmlns:xlink="http://www.w3.org/1999/xlink" x="0px" y="0px"
	 width="60px" height="60px" viewBox="0 0 60 60" enable-background="new 0 0 60 60" xml:space="preserve">
<g>
	<g>
		<path fill="#010202" d="M49.902,56.143H14.689c-1.913,0-3.522-1.607-3.522-3.52V45.73c0-0.611,0.536-1.146,1.148-1.146
			s1.149,0.535,1.149,1.146v6.893c0,0.688,0.536,1.223,1.225,1.223h35.213c0.69,0,1.225-0.535,1.225-1.223V7.38
			c0-0.689-0.534-1.225-1.225-1.225H14.689c-0.688,0-1.225,0.536-1.225,1.225v6.89c0,0.612-0.537,1.148-1.149,1.148
			s-1.148-0.536-1.148-1.148V7.38c0-1.915,1.609-3.522,3.522-3.522h35.213c1.914,0,3.522,1.607,3.522,3.522v45.243
			C53.425,54.535,51.816,56.143,49.902,56.143z"/>
	</g>
	<g>
		<g>
			<path fill="#010202" d="M32.296,32.643c-4.057,0-7.426-3.292-7.426-7.427s3.293-7.426,7.426-7.426
				c4.057,0,7.426,3.292,7.426,7.426S36.353,32.643,32.296,32.643z M32.296,20.164c-2.833,0-5.128,2.296-5.128,5.128
				s2.295,5.129,5.128,5.129c2.832,0,5.13-2.297,5.13-5.129S35.128,20.164,32.296,20.164z"/>
		</g>
		<g>
			<path fill="#010202" d="M43.014,40.604H21.578v-1.15c0-4.975,4.824-8.955,10.718-8.955c5.896,0,10.718,4.057,10.718,8.955V40.604
				z M23.951,38.305h16.613c-0.689-3.139-4.135-5.51-8.344-5.51C28.163,32.795,24.642,35.244,23.951,38.305z"/>
		</g>
	</g>
	<g>
		<g>
			<path fill="#010202" d="M16.45,20.47H7.723c-0.611,0-1.147-0.536-1.147-1.148c0-0.612,0.536-1.148,1.147-1.148h8.728
				c0.612,0,1.148,0.536,1.148,1.148C17.599,19.934,17.062,20.47,16.45,20.47z"/>
		</g>
		<g>
			<path fill="#010202" d="M16.45,27.589H7.723c-0.611,0-1.147-0.536-1.147-1.148c0-0.613,0.536-1.148,1.147-1.148h8.728
				c0.612,0,1.148,0.536,1.148,1.148C17.599,27.053,17.062,27.589,16.45,27.589z"/>
		</g>
		<g>
			<path fill="#010202" d="M16.45,34.631H7.723c-0.611,0-1.147-0.535-1.147-1.148c0-0.611,0.536-1.148,1.147-1.148h8.728
				c0.612,0,1.148,0.537,1.148,1.148C17.599,34.096,17.062,34.631,16.45,34.631z"/>
		</g>
		<g>
			<path fill="#010202" d="M16.45,41.75H7.723c-0.611,0-1.147-0.535-1.147-1.146c0-0.613,0.536-1.15,1.147-1.15h8.728
				c0.612,0,1.148,0.537,1.148,1.15C17.599,41.215,17.062,41.75,16.45,41.75z"/>
		</g>
	</g>
</g>
</svg>
