<?xml version="1.0" encoding="utf-8"?>
<!-- Generator: Adobe Illustrator 16.0.0, SVG Export Plug-In . SVG Version: 6.00 Build 0)  -->
<!DOCTYPE svg PUBLIC "-//W3C//DTD SVG 1.1//EN" "http://www.w3.org/Graphics/SVG/1.1/DTD/svg11.dtd">
<svg version="1.1" id="Calque_1" xmlns="http://www.w3.org/2000/svg" xmlns:xlink="http://www.w3.org/1999/xlink" x="0px" y="0px"
	 width="60px" height="60px" viewBox="0 0 60 60" enable-background="new 0 0 60 60" xml:space="preserve">
<g>
	<g>
		<path fill="#010202" d="M46.005,46.535H14.538c-1.628,0-3.256-1.735-3.256-3.363V18.76c0-1.52,1.356-2.605,3.256-2.605h7.053
			c0.434,0,0.813,0.38,0.813,0.814c0,0.433-0.38,0.812-0.813,0.812h-7.053c-0.651,0-1.628,0.271-1.628,0.979v24.412
			c0,0.76,0.922,1.736,1.628,1.736h31.467c0.597,0,1.085-0.922,1.085-1.736V18.76c0-0.598-0.162-0.979-1.085-0.979h-7.596
			c-0.435,0-0.813-0.38-0.813-0.812c0-0.435,0.379-0.814,0.813-0.814h7.596c1.682,0,2.713,0.977,2.713,2.605v24.412
			C48.718,44.8,47.687,46.535,46.005,46.535z"/>
	</g>
	<g>
		<g>
			<g>
				<path fill="#010202" d="M30.055,33.949c-0.217,0-0.436-0.053-0.598-0.216l-6.021-6.077c-0.326-0.325-0.326-0.813,0-1.14
					c0.325-0.325,0.812-0.325,1.139,0l6.021,6.077c0.326,0.324,0.326,0.812,0,1.14C30.434,33.896,30.217,33.949,30.055,33.949z"/>
			</g>
			<g>
				<path fill="#010202" d="M30.055,33.949c-0.217,0-0.436-0.053-0.598-0.216c-0.324-0.327-0.324-0.815,0-1.14l6.077-6.022
					c0.324-0.326,0.813-0.326,1.139,0c0.326,0.325,0.326,0.813,0,1.14l-6.077,6.022C30.434,33.896,30.217,33.949,30.055,33.949z"/>
			</g>
		</g>
		<g>
			<path fill="#010202" d="M30,33.244c-0.434,0-0.814-0.379-0.814-0.813V11.814C29.186,11.38,29.566,11,30,11
				s0.814,0.38,0.814,0.814v20.616C30.814,32.865,30.434,33.244,30,33.244z"/>
		</g>
	</g>
	<g>
		<path fill="#010202" d="M37.867,39.484H22.675c-0.433,0-0.812-0.38-0.812-0.816c0-0.432,0.38-0.812,0.812-0.812h15.192
			c0.433,0,0.813,0.381,0.813,0.812C38.681,39.104,38.3,39.484,37.867,39.484z"/>
	</g>
</g>
</svg>
