<?xml version="1.0" encoding="utf-8"?>
<!-- Generator: Adobe Illustrator 16.0.0, SVG Export Plug-In . SVG Version: 6.00 Build 0)  -->
<!DOCTYPE svg PUBLIC "-//W3C//DTD SVG 1.1//EN" "http://www.w3.org/Graphics/SVG/1.1/DTD/svg11.dtd">
<svg version="1.1" id="Calque_1" xmlns="http://www.w3.org/2000/svg" xmlns:xlink="http://www.w3.org/1999/xlink" x="0px" y="0px"
	 width="61px" height="60px" viewBox="0 0 61 60" enable-background="new 0 0 61 60" xml:space="preserve">
<g>
	<g>
		<path d="M56.42,9.12l-5.1-5.1C50.66,3.36,49.76,3,48.8,3s-1.86,0.36-2.521,1.08L43.7,6.6l0,0L18.26,32.04l0,0l-3,10.08
			c-0.3,0.899-0.18,1.8,0.3,2.399c0.42,0.541,1.08,0.84,1.86,0.84c0.3,0,0.66-0.062,0.96-0.18l10.08-3l0.06,0.061l23.759-23.76l0,0
			l4.261-4.26c0.66-0.66,1.08-1.56,1.08-2.52C57.5,10.74,57.141,9.84,56.42,9.12z M20.96,41.939l-2.4-2.399L20,34.68l5.82,5.82
			L20.96,41.939z M28.46,38.82l-6.78-6.78L43.7,10.02l3.42,3.42l3.42,3.42L28.46,38.82z M54.74,12.54l-2.52,2.52L48.8,11.64
			l-3.42-3.42L47.9,5.7c0.479-0.48,1.26-0.48,1.68,0l5.1,5.1c0.24,0.24,0.36,0.54,0.36,0.84C55.1,12,54.98,12.3,54.74,12.54z"/>
		<path d="M41.48,14.58L26.24,29.82c-0.48,0.48-0.48,1.2,0,1.68c0.48,0.48,1.2,0.48,1.68,0l15.301-15.3c0.479-0.48,0.479-1.2,0-1.68
			C42.74,14.1,41.96,14.1,41.48,14.58z"/>
		<path d="M41.721,52.2c0,1.319-1.08,2.399-2.4,2.399H8.3c-1.32,0-2.4-1.08-2.4-2.399V21.18c0-1.32,1.08-2.4,2.4-2.4h15.54v-2.4H8.3
			c-2.64,0-4.8,2.16-4.8,4.8V52.2c0,2.64,2.16,4.8,4.8,4.8H39.32c2.64,0,4.8-2.16,4.8-4.8V36.84h-2.399V52.2z"/>
	</g>
</g>
</svg>
