<?xml version="1.0" encoding="utf-8"?>
<!-- Generator: Adobe Illustrator 18.1.1, SVG Export Plug-In . SVG Version: 6.00 Build 0)  -->
<svg version="1.1" id="Calque_1" xmlns="http://www.w3.org/2000/svg" xmlns:xlink="http://www.w3.org/1999/xlink" x="0px" y="0px"
	 viewBox="0 0 60 60" enable-background="new 0 0 60 60" xml:space="preserve">
<g>
	<g>
		<path fill="#FFFFFF" d="M52.7,8.7l-4.5-4.5c-0.6-0.6-1.4-0.9-2.2-0.9s-1.6,0.3-2.2,0.9l-2.3,2.2l0,0L19.2,28.8l0,0l-2.6,8.8
			c-0.3,0.8-0.2,1.6,0.3,2.1c0.4,0.5,0.9,0.7,1.6,0.7c0.3,0,0.6-0.1,0.8-0.2l8.8-2.6l0.1,0.1L49,16.9l0,0l3.7-3.7
			c0.6-0.6,0.9-1.4,0.9-2.2C53.6,10.1,53.3,9.3,52.7,8.7z M21.6,37.5l-2.1-2.1l1.3-4.3l5.1,5.1L21.6,37.5z M28.2,34.7l-5.9-5.9
			L41.5,9.5l3,3l3,3L28.2,34.7z M51.2,11.7L49,13.9l-3-3l-3-3l2.2-2.2c0.4-0.4,1.1-0.4,1.5,0l4.5,4.5c0.2,0.2,0.3,0.5,0.3,0.7
			C51.5,11.2,51.4,11.5,51.2,11.7z"/>
		<path fill="#FFFFFF" d="M39.6,13.5L26.2,26.8c-0.4,0.4-0.4,1.1,0,1.5s1.1,0.4,1.5,0l13.4-13.4c0.4-0.4,0.4-1.1,0-1.5
			C40.7,13.1,40,13.1,39.6,13.5z"/>
		<path fill="#FFFFFF" d="M39.8,46.5c0,1.2-0.9,2.1-2.1,2.1H10.5c-1.2,0-2.1-0.9-2.1-2.1V19.3c0-1.2,0.9-2.1,2.1-2.1h13.6v-2.1H10.5
			c-2.3,0-4.2,1.9-4.2,4.2v27.2c0,2.3,1.9,4.2,4.2,4.2h27.2c2.3,0,4.2-1.9,4.2-4.2V33h-2.1V46.5z"/>
	</g>
</g>
</svg>
