<?xml version="1.0" encoding="utf-8"?>
<!-- Generator: Adobe Illustrator 16.0.0, SVG Export Plug-In . SVG Version: 6.00 Build 0)  -->
<!DOCTYPE svg PUBLIC "-//W3C//DTD SVG 1.1//EN" "http://www.w3.org/Graphics/SVG/1.1/DTD/svg11.dtd">
<svg version="1.1" id="Calque_1" xmlns="http://www.w3.org/2000/svg" xmlns:xlink="http://www.w3.org/1999/xlink" x="0px" y="0px"
	 width="590.4px" height="432px" viewBox="0 0 590.4 432" enable-background="new 0 0 590.4 432" xml:space="preserve">
<g>
	<path fill="#16B3FD" d="M554.399,0H36C16.149,0,0,16.15,0,36v360c0,19.851,16.15,36,36,36h518.4c19.852,0,36-16.149,36-36V36
		C590.399,16.15,574.251,0,554.399,0z M517.91,43.2L295.199,247.745L72.482,43.2H517.91z M43.2,74.959l155.751,143.043L43.2,356.811
		V74.959z M72.23,388.8l158.695-141.429l39.218,36.014c6.754,6.552,15.624,10.152,25.056,10.152c9.433,0,18.311-3.601,25.057-10.152
		l39.212-36.014L518.162,388.8H72.23z M547.199,356.811l-155.75-138.802l155.75-143.05V356.811z"/>
</g>
</svg>
