<?xml version="1.0" encoding="utf-8"?>
<!-- Generator: Adobe Illustrator 16.0.0, SVG Export Plug-In . SVG Version: 6.00 Build 0)  -->
<!DOCTYPE svg PUBLIC "-//W3C//DTD SVG 1.1//EN" "http://www.w3.org/Graphics/SVG/1.1/DTD/svg11.dtd">
<svg version="1.1" id="Calque_1" xmlns="http://www.w3.org/2000/svg" xmlns:xlink="http://www.w3.org/1999/xlink" x="0px" y="0px"
	 width="60px" height="60px" viewBox="0 0 60 60" enable-background="new 0 0 60 60" xml:space="preserve">
<path fill="none" d="M52.004,10.879H7.996c-0.706,0-1.28,0.578-1.28,1.288v35.667c0,0.71,0.574,1.287,1.28,1.287h4.106l6.581-9.84
	c0.626-0.935,1.478-1.449,2.398-1.449c0.92,0,1.771,0.515,2.397,1.449l2.725,4.076l8.503-12.414
	c0.635-0.928,1.497-1.438,2.429-1.438c0.931,0,1.794,0.511,2.429,1.438l12.447,18.177c0.702-0.004,1.272-0.58,1.272-1.287V12.167
	C53.284,11.457,52.71,10.879,52.004,10.879z M18.702,31.688c-4.537,0-8.229-3.692-8.229-8.229s3.691-8.229,8.229-8.229
	c4.538,0,8.23,3.692,8.23,8.229S23.24,31.688,18.702,31.688z"/>
<path fill="none" d="M18.702,19.203c-2.347,0-4.256,1.909-4.256,4.256c0,2.347,1.909,4.257,4.256,4.257
	c2.348,0,4.257-1.91,4.257-4.257C22.959,21.112,21.05,19.203,18.702,19.203z"/>
<path fill="none" d="M20.854,42.967l-3.61,5.567h7.674l-3.609-5.568C21.162,42.741,21.003,42.74,20.854,42.967z"/>
<path fill="none" d="M36.888,34.893l-8.174,12.215l1.348,2.014H46.9L37.38,34.893C37.225,34.66,37.047,34.656,36.888,34.893z"/>
<path fill="#010202" d="M18.702,16.229c-3.985,0-7.229,3.243-7.229,7.229s3.243,7.229,7.229,7.229c3.987,0,7.23-3.243,7.23-7.229
	S22.689,16.229,18.702,16.229z M18.702,28.716c-2.898,0-5.256-2.358-5.256-5.257c0-2.898,2.357-5.256,5.256-5.256
	s5.257,2.358,5.257,5.256C23.959,26.357,21.601,28.716,18.702,28.716z"/>
<path fill="#010202" d="M53.182,7.906H6.818c-1.695,0-3.074,1.375-3.074,3.064v38.059c0,1.689,1.379,3.064,3.074,3.064h46.616
	l0.24-0.039c1.495-0.24,2.581-1.513,2.581-3.025V10.971C56.256,9.281,54.877,7.906,53.182,7.906z M15.404,49.534l4.611-7.112
	c0.531-0.812,1.603-0.812,2.132,0l4.61,7.112H15.404z M29.528,50.121l-2.018-3.014l8.546-12.771c0.538-0.801,1.619-0.8,2.155,0
	l10.562,15.785H29.528z M54.284,47.834c0,1.261-1.022,2.287-2.28,2.287h-0.52L38.74,31.509c-0.888-1.294-2.324-1.292-3.208,0
	l-9.338,13.632l-3.547-5.303c-0.868-1.298-2.265-1.296-3.132,0l-6.88,10.283h-4.64c-1.258,0-2.28-1.026-2.28-2.287V12.167
	c0-1.262,1.022-2.288,2.28-2.288h44.008c1.258,0,2.28,1.026,2.28,2.288V47.834z"/>
<path fill="#FFFFFF" d="M53.182,6.906H6.818c-2.246,0-4.074,1.823-4.074,4.064v38.059c0,2.241,1.828,4.064,4.074,4.064h46.966
	l0.909-0.045l-0.13-0.193c1.597-0.567,2.692-2.075,2.692-3.826V10.971C57.256,8.729,55.428,6.906,53.182,6.906z M56.756,49.029
	c0,1.775-1.301,3.246-3.002,3.52l0.03,0.045H36.835H6.818c-1.973,0-3.574-1.596-3.574-3.564V10.971c0-1.97,1.599-3.564,3.574-3.564
	h46.363c1.973,0,3.574,1.596,3.574,3.564V49.029z"/>
<path fill="#FFFFFF" d="M53.182,7.406H6.818c-1.976,0-3.574,1.595-3.574,3.564v38.059c0,1.969,1.602,3.564,3.574,3.564h30.017
	h16.949l-0.03-0.045c1.701-0.273,3.002-1.744,3.002-3.52V10.971C56.756,9.002,55.154,7.406,53.182,7.406z M56.256,49.029
	c0,1.513-1.086,2.785-2.581,3.025l-0.24,0.039H6.818c-1.695,0-3.074-1.375-3.074-3.064V10.971c0-1.69,1.379-3.064,3.074-3.064
	h46.363c1.695,0,3.074,1.375,3.074,3.064V49.029z"/>
</svg>
