<?xml version="1.0" encoding="utf-8"?>
<!-- Generator: Adobe Illustrator 16.0.0, SVG Export Plug-In . SVG Version: 6.00 Build 0)  -->
<!DOCTYPE svg PUBLIC "-//W3C//DTD SVG 1.1//EN" "http://www.w3.org/Graphics/SVG/1.1/DTD/svg11.dtd">
<svg version="1.1" id="Calque_1" xmlns="http://www.w3.org/2000/svg" xmlns:xlink="http://www.w3.org/1999/xlink" x="0px" y="0px"
	 width="60px" height="60px" viewBox="0 0 60 60" enable-background="new 0 0 60 60" xml:space="preserve">
<g>
	<g>
		<path fill="#010202" d="M23.508,40.48l-5.727-14.715h-1.688L10.207,40.48c-0.274,0.063-0.553,0.15-0.831,0.263
			c-0.281,0.116-0.546,0.25-0.788,0.399v0.869h5.636v-0.869c-0.624-0.35-1.286-0.57-1.984-0.662l1.345-3.625h5.064l1.321,3.625
			c-0.304,0.063-0.622,0.152-0.956,0.276c-0.336,0.12-0.648,0.249-0.936,0.386v0.869h7.14v-0.869
			c-0.227-0.149-0.493-0.283-0.797-0.399C24.117,40.631,23.812,40.544,23.508,40.48z M14.132,35.372l1.575-4.313l0.501-2.007h0.046
			l0.434,1.96l1.483,4.357L14.132,35.372L14.132,35.372z"/>
		<path fill="#010202" d="M56.547,4.326H28.305c-1.245,0-2.26,1.013-2.26,2.259v11.318H2.32c-0.622,0-1.129,0.506-1.129,1.13v29.352
			c0,0.625,0.507,1.132,1.129,1.132h10.169v5.027c0,0.431,0.246,0.825,0.633,1.017c0.157,0.079,0.327,0.113,0.496,0.113
			c0.247,0,0.492-0.082,0.696-0.236l7.601-5.921h10.91c0.622,0,1.129-0.507,1.129-1.132V35.96h2.451
			c0.363,0,1.024,0.231,1.311,0.457l5.949,4.736c0.367,0.294,0.771,0.443,1.167,0.443c0.77,0,1.55-0.604,1.55-1.76v-3.88H56.55
			c1.245,0,2.259-1.011,2.259-2.259V6.585C58.806,5.34,57.795,4.326,56.547,4.326z M31.692,47.255H21.526
			c-0.254,0-0.495,0.084-0.695,0.236l-6.083,4.739v-3.849c0-0.622-0.506-1.13-1.13-1.13H3.45v-27.09h22.595v13.536
			c0,1.245,1.013,2.259,2.26,2.259h3.388V47.255L31.692,47.255z M56.547,33.698H46.379c-1.245,0-2.259,1.012-2.259,2.259v2.667
			l-5.003-3.978c-0.69-0.549-1.829-0.948-2.717-0.948h-8.098V6.584h28.243L56.547,33.698L56.547,33.698z"/>
		<path fill="#010202" d="M33.283,30.234h1.268v-1.009h4.936v-6.309h-6.202L33.283,30.234L33.283,30.234z M34.548,24.14h3.648v3.864
			h-3.648V24.14z"/>
		<rect x="32.297" y="13.99" fill="#010202" width="7.876" height="1.224"/>
		<rect x="33.435" y="11.092" fill="#010202" width="5.921" height="1.181"/>
		<path fill="#010202" d="M41.935,30.277h1.374v-0.986h6.265v0.859h1.395v-7.684h-9.033V30.277L41.935,30.277z M43.306,23.775h6.268
			v4.184h-6.268V23.775z"/>
		<path fill="#010202" d="M52.471,19.376h-2.146v-4.528h-4.893l0.364-2.402h5.881v-1.289H41.01v1.289h3.392
			c-0.133,0.751-0.258,1.588-0.387,2.402h-2.576v1.289H43.8c-0.215,1.181-0.43,2.297-0.623,3.242h-2.943v1.308h12.234L52.471,19.376
			L52.471,19.376z M48.93,19.376h-4.316c0.195-0.944,0.41-2.081,0.602-3.241h3.715V19.376z"/>
		<rect x="33.306" y="16.995" fill="#010202" width="6.117" height="1.179"/>
		<rect x="33.306" y="19.956" fill="#010202" width="6.117" height="1.18"/>
	</g>
</g>
</svg>
