<?xml version="1.0" encoding="utf-8"?>
<!-- Generator: Adobe Illustrator 16.0.0, SVG Export Plug-In . SVG Version: 6.00 Build 0)  -->
<!DOCTYPE svg PUBLIC "-//W3C//DTD SVG 1.1//EN" "http://www.w3.org/Graphics/SVG/1.1/DTD/svg11.dtd">
<svg version="1.1" id="Calque_1" xmlns="http://www.w3.org/2000/svg" xmlns:xlink="http://www.w3.org/1999/xlink" x="0px" y="0px"
	 width="61px" height="60px" viewBox="0 0 61 60" enable-background="new 0 0 61 60" xml:space="preserve">
<g>
	<g>
		<path d="M25.774,37.629l-4.258-10.941h-1.255l-4.377,10.941c-0.204,0.047-0.411,0.111-0.619,0.195
			c-0.209,0.086-0.405,0.186-0.585,0.297v0.646h4.19v-0.646c-0.464-0.26-0.956-0.424-1.476-0.492l1-2.695h3.766l0.983,2.695
			c-0.226,0.047-0.463,0.114-0.712,0.205c-0.25,0.09-0.482,0.186-0.695,0.287v0.646h5.309v-0.646
			c-0.169-0.111-0.367-0.211-0.593-0.297C26.227,37.74,26,37.676,25.774,37.629z M18.802,33.83l1.171-3.206l0.373-1.493h0.034
			l0.322,1.458l1.103,3.24L18.802,33.83L18.802,33.83z"/>
		<path d="M50.34,10.746h-21c-0.926,0-1.68,0.753-1.68,1.68v8.416H10.02c-0.463,0-0.84,0.376-0.84,0.84v21.825
			c0,0.464,0.376,0.841,0.84,0.841h7.56v3.739c0,0.32,0.183,0.613,0.471,0.755c0.117,0.059,0.243,0.085,0.369,0.085
			c0.184,0,0.366-0.061,0.517-0.177l5.652-4.402h8.112c0.463,0,0.84-0.377,0.84-0.841v-9.239h1.822c0.271,0,0.762,0.172,0.975,0.34
			l4.424,3.521c0.272,0.218,0.572,0.33,0.867,0.33c0.572,0,1.152-0.449,1.152-1.308v-2.885h7.561c0.926,0,1.68-0.752,1.68-1.68
			v-20.16C52.02,11.5,51.268,10.746,50.34,10.746z M31.859,42.666H24.3c-0.188,0-0.369,0.062-0.517,0.176l-4.523,3.524v-2.861
			c0-0.464-0.376-0.84-0.84-0.84h-7.56V22.521h16.8v10.065c0,0.926,0.753,1.68,1.68,1.68h2.52V42.666L31.859,42.666z M50.34,32.586
			h-7.561c-0.926,0-1.68,0.753-1.68,1.68v1.982l-3.719-2.957c-0.514-0.408-1.361-0.705-2.021-0.705h-6.02V12.425h21V32.586z"/>
		<path d="M33.042,30.011h0.942v-0.75h3.67V24.57h-4.611L33.042,30.011L33.042,30.011z M33.982,25.479h2.713v2.873h-2.713V25.479z"
			/>
		<rect x="32.309" y="17.932" width="5.856" height="0.91"/>
		<rect x="33.154" y="15.777" width="4.402" height="0.878"/>
		<path d="M39.475,30.043h1.021v-0.734h4.658v0.639h1.037v-5.713h-6.717V30.043z M40.494,25.208h4.66v3.111h-4.66V25.208z"/>
		<path d="M47.309,21.937h-1.596V18.57h-3.638l0.271-1.787h4.373v-0.958h-7.932v0.958h2.521c-0.098,0.559-0.191,1.181-0.287,1.787
			h-1.916v0.958h1.756c-0.159,0.878-0.319,1.708-0.463,2.411h-2.188v0.972h9.096L47.309,21.937L47.309,21.937z M44.676,21.937
			h-3.209c0.145-0.702,0.305-1.548,0.447-2.41h2.762V21.937z"/>
		<rect x="33.059" y="20.166" width="4.549" height="0.877"/>
		<rect x="33.059" y="22.368" width="4.549" height="0.877"/>
	</g>
</g>
</svg>
