<?xml version="1.0" encoding="utf-8"?>
<!-- Generator: Adobe Illustrator 18.1.1, SVG Export Plug-In . SVG Version: 6.00 Build 0)  -->
<svg version="1.1" id="Calque_1" xmlns="http://www.w3.org/2000/svg" xmlns:xlink="http://www.w3.org/1999/xlink" x="0px" y="0px"
	 viewBox="0 0 60 60" enable-background="new 0 0 60 60" xml:space="preserve">
<g>
	<polygon fill="none" points="13.5,35.6 13.5,35.6 13.5,35.6 	"/>
	<path fill="#16B3FD" d="M24.2,41.2c-0.3-0.1-0.6-0.2-0.9-0.3l-6-15.3h-1.8L9.4,40.9c-0.3,0.1-0.6,0.2-0.9,0.3
		c-0.3,0.1-0.6,0.3-0.8,0.4v0.9h5.9v-0.9c-0.6-0.4-1.3-0.6-2.1-0.7l1.4-3.8h5.3l1.4,3.8c-0.3,0.1-0.6,0.2-1,0.3
		c-0.4,0.1-0.7,0.3-1,0.4v0.9H25v-0.9C24.8,41.4,24.5,41.3,24.2,41.2z M13.5,35.6L13.5,35.6L13.5,35.6L13.5,35.6l1.6-4.5l0.5-2.1h0
		l0.5,2l1.5,4.5H13.5z"/>
	<polygon fill="#16B3FD" points="13.5,35.6 13.5,35.6 13.5,35.6 	"/>
	<path fill="#16B3FD" d="M57.6,3.4H28.2c-1.2,0-2.2,1-2.2,2.2v11.9H1.2c-0.6,0-1,0.5-1,1v30.6c0,0.6,0.5,1,1,1h10.7v5.4
		c0,0.4,0.2,0.8,0.6,0.9c0.3,0.2,0.8,0.1,1.1-0.1l8-6.2h11.4c0.6,0,1-0.5,1-1V36.1h2.7c0.4,0,1.1,0.3,1.5,0.5l6.2,4.9
		c0.4,0.3,0.7,0.4,1.1,0.4c0.7,0,1.5-0.6,1.5-1.7v-4.2h10.7c1.2,0,2.2-1,2.2-2.2V5.6C59.8,4.4,58.9,3.4,57.6,3.4z M31.9,48.1H21.2
		c-0.2,0-0.4,0.1-0.6,0.2L14,53.5v-4.3c0-0.6-0.5-1-1-1H2.2V19.6H26v14.2c0,1.2,1,2.2,2.2,2.2h3.7V48.1z M57.8,34H47.1
		c-1.2,0-2.2,1-2.2,2.2v3.1L39.4,35c-0.7-0.6-1.8-1-2.7-1h-8.6V5.5h29.7V34z"/>
	<path fill="#16B3FD" d="M39.9,22.6h-6.5l0,7.6h1.3v-1.1h5.1V22.6z M38.5,27.9h-3.8v-4h3.8V27.9z"/>
	<rect x="32.4" y="13.3" fill="#16B3FD" width="8.2" height="1.3"/>
	<rect x="33.6" y="10.3" fill="#16B3FD" width="6.2" height="1.2"/>
	<path fill="#16B3FD" d="M42.4,30.3h1.4v-1h6.5v0.9h1.5v-8h-9.4V30.3z M43.9,23.5h6.5v4.4h-6.5V23.5z"/>
	<path fill="#16B3FD" d="M53.4,18.9h-2.2v-4.7h-5.1l0.4-2.5h6.1v-1.3H41.5v1.3H45c-0.1,0.8-0.3,1.7-0.4,2.5h-2.7v1.3h2.5
		c-0.2,1.2-0.4,2.4-0.6,3.4h-3.1v1.4h12.7L53.4,18.9z M49.7,18.9h-4.5c0.2-1,0.4-2.2,0.6-3.4h3.9V18.9z"/>
	<rect x="33.4" y="16.5" fill="#16B3FD" width="6.4" height="1.2"/>
	<rect x="33.4" y="19.5" fill="#16B3FD" width="6.4" height="1.2"/>
</g>
</svg>
