<?xml version="1.0" encoding="utf-8"?>
<!-- Generator: Adobe Illustrator 16.0.0, SVG Export Plug-In . SVG Version: 6.00 Build 0)  -->
<!DOCTYPE svg PUBLIC "-//W3C//DTD SVG 1.1//EN" "http://www.w3.org/Graphics/SVG/1.1/DTD/svg11.dtd">
<svg version="1.1" id="Calque_1" xmlns="http://www.w3.org/2000/svg" xmlns:xlink="http://www.w3.org/1999/xlink" x="0px" y="0px"
	 width="61px" height="60px" viewBox="0 0 61 60" enable-background="new 0 0 61 60" xml:space="preserve">
<g>
	<path fill="#FFFFFF" d="M30.5,49.112c-0.351,0-0.71-0.048-1.098-0.144c-0.141-0.039-0.245-0.078-0.347-0.12l-0.119-0.045
		c-0.175-0.059-0.348-0.125-0.513-0.212C28.224,48.485,7.91,37.513,7.91,24.907c0-7.993,5.56-14.02,12.933-14.02
		c3.253,0,6.971,1.649,9.657,4.206c2.688-2.557,6.402-4.206,9.658-4.206c7.372,0,12.933,6.028,12.933,14.02
		c0,12.605-20.314,23.578-20.519,23.686c-0.162,0.087-0.334,0.153-0.508,0.214c-0.006,0-0.096,0.031-0.101,0.032
		c-0.12,0.053-0.224,0.092-0.332,0.121C31.211,49.064,30.851,49.112,30.5,49.112z M20.843,13.655
		c-5.795,0-10.165,4.837-10.165,11.251c0,9.052,14.109,18.609,19.053,21.242c0.024,0.012,0.061,0.021,0.098,0.034l0.136,0.047
		c0.044,0.017,0.105,0.042,0.166,0.067c0.201,0.05,0.438,0.067,0.737-0.001c0.075-0.03,0.129-0.053,0.185-0.072l0.117-0.041
		c0.036-0.013,0.075-0.022,0.11-0.039c4.932-2.629,19.041-12.186,19.041-21.238c0-6.415-4.369-11.252-10.164-11.252
		c-2.894,0-6.432,1.786-8.604,4.344c-0.263,0.309-0.649,0.488-1.055,0.488l0,0c-0.406,0-0.792-0.179-1.056-0.488
		C27.273,15.441,23.736,13.655,20.843,13.655z"/>
</g>
</svg>
