<?xml version="1.0" encoding="utf-8"?>
<!-- Generator: Adobe Illustrator 16.0.0, SVG Export Plug-In . SVG Version: 6.00 Build 0)  -->
<!DOCTYPE svg PUBLIC "-//W3C//DTD SVG 1.1//EN" "http://www.w3.org/Graphics/SVG/1.1/DTD/svg11.dtd">
<svg version="1.1" id="Calque_1" xmlns="http://www.w3.org/2000/svg" xmlns:xlink="http://www.w3.org/1999/xlink" x="0px" y="0px"
	 width="60px" height="60px" viewBox="0 0 60 60" enable-background="new 0 0 60 60" xml:space="preserve">
<g>
	<path fill="#010202" d="M30,44.5c-0.268,0-0.539-0.035-0.834-0.111c-0.107-0.027-0.186-0.057-0.262-0.09l-0.092-0.035
		c-0.133-0.043-0.264-0.096-0.389-0.16c-0.15-0.08-15.562-8.402-15.562-17.967c0-6.063,4.219-10.636,9.811-10.636
		c2.469,0,5.289,1.25,7.328,3.191c2.039-1.94,4.857-3.191,7.328-3.191c5.592,0,9.811,4.573,9.811,10.636
		c0,9.561-15.412,17.887-15.566,17.969c-0.123,0.066-0.254,0.117-0.387,0.164c-0.004,0-0.074,0.023-0.078,0.023
		c-0.092,0.041-0.17,0.07-0.254,0.092C30.539,44.465,30.266,44.5,30,44.5z M22.672,17.6c-4.395,0-7.711,3.67-7.711,8.536
		c0,6.866,10.703,14.118,14.455,16.116c0.018,0.008,0.047,0.016,0.074,0.025l0.104,0.035c0.033,0.014,0.08,0.033,0.127,0.051
		c0.152,0.037,0.33,0.049,0.559-0.002c0.057-0.02,0.098-0.039,0.139-0.053l0.09-0.031c0.027-0.012,0.057-0.018,0.084-0.029
		C34.334,40.254,45.037,33,45.037,26.134c0-4.867-3.314-8.537-7.711-8.537c-2.195,0-4.879,1.355-6.527,3.296
		c-0.199,0.234-0.494,0.37-0.801,0.37l0,0c-0.309,0-0.602-0.136-0.801-0.37C27.553,18.956,24.867,17.6,22.672,17.6z"/>
</g>
</svg>
