<?xml version="1.0" encoding="utf-8"?>
<!-- Generator: Adobe Illustrator 16.0.0, SVG Export Plug-In . SVG Version: 6.00 Build 0)  -->
<!DOCTYPE svg PUBLIC "-//W3C//DTD SVG 1.1//EN" "http://www.w3.org/Graphics/SVG/1.1/DTD/svg11.dtd">
<svg version="1.1" id="Calque_1" xmlns="http://www.w3.org/2000/svg" xmlns:xlink="http://www.w3.org/1999/xlink" x="0px" y="0px"
	 width="704px" height="578.32px" viewBox="0 0 704 578.32" enable-background="new 0 0 704 578.32" xml:space="preserve">
<g>
	<path d="M607,0H97C43.512,0,0,43.512,0,97v254.992c0,53.496,43.512,97,97,97h331.44l135.8,129.328V448.992h42.773
		c53.475,0,96.984-43.521,96.984-97V97C704,43.512,660.488,0,607,0 M680,351.992c0,40.248-32.752,73-73,73h-66.784v97.328
		l-102.184-97.328H97c-40.256,0-73-32.752-73-73V97c0-40.248,32.744-73,73-73h510c40.248,0,73,32.744,73,73V351.992z"/>
	<rect x="125.336" y="111.448" width="455.224" height="24"/>
	<rect x="125.336" y="203.056" width="455.224" height="24"/>
	<rect x="125.336" y="294.664" width="275.775" height="24"/>
</g>
</svg>
