<?xml version="1.0" encoding="utf-8"?>
<!-- Generator: Adobe Illustrator 16.0.0, SVG Export Plug-In . SVG Version: 6.00 Build 0)  -->
<!DOCTYPE svg PUBLIC "-//W3C//DTD SVG 1.1//EN" "http://www.w3.org/Graphics/SVG/1.1/DTD/svg11.dtd">
<svg version="1.1" id="Calque_1" xmlns="http://www.w3.org/2000/svg" xmlns:xlink="http://www.w3.org/1999/xlink" x="0px" y="0px"
	 width="579.059px" height="579.6px" viewBox="0 0 579.059 579.6" enable-background="new 0 0 579.059 579.6" xml:space="preserve">
<g>
	<path d="M244.8,489.6C109.44,489.6,0,379.44,0,244.8C0,110.16,110.16,0,244.8,0s244.8,110.16,244.8,244.8
		C489.6,379.44,380.161,489.6,244.8,489.6 M244.8,54.72c-104.4,0-189.36,85.68-189.36,190.08c0,104.4,84.96,189.36,189.36,189.36
		c104.4,0,190.08-84.96,190.08-189.359C434.879,140.4,349.2,54.72,244.8,54.72"/>
	<path d="M552.241,579.6c-7.201,0-14.4-2.88-19.441-7.92L378.721,417.6c-10.801-10.8-10.801-28.08,0-38.88
		c10.799-10.8,28.078-10.8,38.879,0l153.359,153.36c10.801,10.8,10.801,28.079,0,38.88C566.639,576.72,559.44,579.6,552.241,579.6"
		/>
</g>
</svg>
