<?xml version="1.0" encoding="utf-8"?>
<!-- Generator: Adobe Illustrator 18.1.1, SVG Export Plug-In . SVG Version: 6.00 Build 0)  -->
<svg version="1.1" id="Calque_1" xmlns="http://www.w3.org/2000/svg" xmlns:xlink="http://www.w3.org/1999/xlink" x="0px" y="0px"
	 viewBox="0 0 60 60" enable-background="new 0 0 60 60" xml:space="preserve">
<path fill="#FFFFFF" d="M40.6,39.5L41,39c2.7-3.3,4.1-7.3,4.1-11.5C45,17.3,36.7,9,26.5,9S8,17.3,8,27.5S16.3,46,26.5,46
	c4.2,0,8.2-1.4,11.5-4.1l0.5-0.4l11,11c0.5,0.5,1.6,0.5,2,0c0.3-0.4,0.5-0.7,0.5-1.1s-0.2-0.8-0.4-1.1L40.6,39.5z M37.5,38.4
	l-0.1,0.1c-2.9,2.9-6.8,4.5-10.9,4.5C18,43,11,36,11,27.5C11,18.9,18,12,26.5,12c8.6,0,15.5,7,15.5,15.5
	C42,31.6,40.4,35.5,37.5,38.4z"/>
</svg>
