<?xml version="1.0" encoding="utf-8"?>
<!-- Generator: Adobe Illustrator 16.0.0, SVG Export Plug-In . SVG Version: 6.00 Build 0)  -->
<!DOCTYPE svg PUBLIC "-//W3C//DTD SVG 1.1//EN" "http://www.w3.org/Graphics/SVG/1.1/DTD/svg11.dtd">
<svg version="1.1" id="Calque_1" xmlns="http://www.w3.org/2000/svg" xmlns:xlink="http://www.w3.org/1999/xlink" x="0px" y="0px"
	 width="60px" height="60px" viewBox="0 0 60 60" enable-background="new 0 0 60 60" xml:space="preserve">
<g>
	<path d="M17.6,35c-2.8,0-5.1-2.3-5.1-5.1c0-2.8,2.3-5.1,5.1-5.1c2.8,0,5.1,2.3,5.1,5.1C22.6,32.7,20.4,35,17.6,35z M17.6,26.2
		c-2.1,0-3.8,1.7-3.8,3.8s1.7,3.8,3.8,3.8c2.1,0,3.8-1.7,3.8-3.8S19.7,26.2,17.6,26.2z"/>
</g>
<g>
	<path d="M42.3,23c-2.8,0-5.1-2.3-5.1-5.1c0-2.8,2.3-5.1,5.1-5.1c2.8,0,5.1,2.3,5.1,5.1C47.3,20.7,45,23,42.3,23z M42.3,14.2
		c-2.1,0-3.8,1.7-3.8,3.8s1.7,3.8,3.8,3.8s3.8-1.7,3.8-3.8C46.1,15.9,44.3,14.2,42.3,14.2z"/>
</g>
<g>
	<path d="M42.3,47c-2.8,0-5.1-2.3-5.1-5.1s2.3-5.1,5.1-5.1c2.8,0,5.1,2.3,5.1,5.1S45,47,42.3,47z M42.3,38.2c-2.1,0-3.8,1.7-3.8,3.8
		c0,2.1,1.7,3.8,3.8,3.8s3.8-1.7,3.8-3.8C46.1,39.8,44.3,38.2,42.3,38.2z"/>
</g>
<g>
	<rect x="29" y="14.8" transform="matrix(0.4469 0.8946 -0.8946 0.4469 37.8148 -13.2298)" width="1.3" height="18.4"/>
</g>
<g>
	<rect x="20.3" y="35.6" transform="matrix(0.8805 0.474 -0.474 0.8805 20.7426 -9.719)" width="18.6" height="1.3"/>
</g>
</svg>
