<?xml version="1.0" encoding="utf-8"?>
<!-- Generator: Adobe Illustrator 16.0.0, SVG Export Plug-In . SVG Version: 6.00 Build 0)  -->
<!DOCTYPE svg PUBLIC "-//W3C//DTD SVG 1.1//EN" "http://www.w3.org/Graphics/SVG/1.1/DTD/svg11.dtd">
<svg version="1.1" id="Calque_1" xmlns="http://www.w3.org/2000/svg" xmlns:xlink="http://www.w3.org/1999/xlink" x="0px" y="0px"
	 width="60px" height="60px" viewBox="0 0 60 60" enable-background="new 0 0 60 60" xml:space="preserve">
<g>
	<path fill="#010202" d="M38.664,29.487l-13.131-7.665c-0.685-0.39-1.513-0.39-2.197,0c-0.683,0.391-1.074,1.124-1.074,1.904
		l-0.096,15.182c0,0.782,0.389,1.515,1.072,1.904c0.342,0.195,0.731,0.292,1.073,0.292c0.392,0,0.733-0.097,1.074-0.292
		l13.182-7.566c0.683-0.391,1.075-1.123,1.075-1.904C39.739,30.61,39.3,29.877,38.664,29.487z M37.688,31.586l-13.18,7.567
		c-0.049,0.048-0.146,0.048-0.244,0c-0.049-0.05-0.098-0.098-0.098-0.195l0.049-15.231c0-0.097,0.049-0.146,0.097-0.195
		c0.051,0,0.051-0.049,0.1-0.049c0.048,0,0.097,0,0.097,0.049l13.132,7.664c0.048,0.05,0.099,0.098,0.099,0.195
		C37.786,31.44,37.738,31.537,37.688,31.586z"/>
	<path fill="#010202" d="M48.818,8.007H11.133c-1.709,0-3.126,1.416-3.126,3.125v37.735c0,1.709,1.417,3.126,3.126,3.126h37.734
		c1.709,0,3.126-1.417,3.126-3.126V11.132C51.942,9.423,50.527,8.007,48.818,8.007z M49.941,48.818c0,0.635-0.487,1.123-1.123,1.123
		H11.133c-0.635,0-1.123-0.488-1.123-1.123V11.132c0-0.635,0.488-1.124,1.123-1.124h37.734c0.636,0,1.123,0.488,1.123,1.124v37.687
		H49.941z"/>
	<path fill="#010202" d="M46.085,13.866H32.27c-0.292-0.976-1.22-1.709-2.295-1.709c-1.073,0-2,0.733-2.294,1.709H13.378
		c-0.391,0-0.733,0.342-0.733,0.732c0,0.391,0.343,0.732,0.733,0.732h14.303c0.294,0.976,1.221,1.708,2.294,1.708
		c1.075,0,2.003-0.732,2.295-1.708h13.815c0.392,0,0.732-0.342,0.732-0.732C46.817,14.208,46.477,13.866,46.085,13.866z
		 M31.245,15.33c-0.245,0.439-0.732,0.732-1.271,0.732c-0.536,0-1.024-0.293-1.269-0.732c-0.147-0.196-0.194-0.489-0.194-0.732
		c0-0.244,0.098-0.537,0.194-0.732c0.244-0.44,0.732-0.732,1.269-0.732c0.538,0,1.025,0.292,1.271,0.732
		c0.146,0.195,0.194,0.488,0.194,0.732C31.439,14.841,31.343,15.134,31.245,15.33z"/>
</g>
</svg>
